<svg xmlns="http://www.w3.org/2000/svg" width="120" height="40" viewBox="0 0 120 40"><g><g><g><g><g><g><path fill="#b6b6b6" d="M110.135 0H9.535c-.367 0-.729 0-1.095.002-.306.002-.61.008-.919.013-.665.017-1.339.058-2.004.177a6.641 6.641 0 0 0-1.9.627A6.428 6.428 0 0 0 .195 5.522c-.121.662-.162 1.332-.18 2.002-.009.306-.01.614-.015.921v23.114c.005.31.006.611.015.922.018.67.059 1.34.18 2.002a6.56 6.56 0 0 0 .625 1.904 6.173 6.173 0 0 0 1.178 1.614c.473.478 1.02.875 1.619 1.179a6.68 6.68 0 0 0 1.9.631c.665.119 1.339.158 2.004.177.309.006.613.01.919.01.366.002.728.002 1.095.002h100.6c.36 0 .725 0 1.084-.002.305 0 .617-.004.922-.01.67-.019 1.342-.058 2-.177a6.783 6.783 0 0 0 1.908-.631 6.254 6.254 0 0 0 1.617-1.179 6.375 6.375 0 0 0 1.182-1.614 6.579 6.579 0 0 0 .619-1.904c.123-.662.162-1.332.186-2.002.004-.311.004-.612.004-.922.007-.363.007-.725.007-1.094V9.536c0-.366 0-.729-.007-1.091 0-.307 0-.615-.004-.921-.024-.67-.063-1.34-.186-2.002a6.609 6.609 0 0 0-.619-1.904 6.464 6.464 0 0 0-2.799-2.799 6.743 6.743 0 0 0-1.908-.627c-.658-.119-1.33-.16-2-.177-.305-.005-.617-.011-.922-.013C110.86 0 110.495 0 110.135 0z"/></g><g><path d="M8.445 39.125c-.305 0-.602-.004-.904-.01-.559-.016-1.222-.047-1.869-.163a5.925 5.925 0 0 1-1.657-.548 5.434 5.434 0 0 1-1.397-1.017 5.32 5.32 0 0 1-1.02-1.396 5.688 5.688 0 0 1-.543-1.658c-.123-.672-.154-1.355-.167-1.875-.006-.211-.015-.913-.015-.913v-23.1s.009-.692.015-.895c.013-.524.044-1.206.166-1.872a5.764 5.764 0 0 1 .543-1.662 5.544 5.544 0 0 1 2.418-2.42 5.808 5.808 0 0 1 1.653-.544C6.341.931 7.024.901 7.543.888l.903-.013h102.768l.913.013c.513.013 1.196.043 1.859.163a5.94 5.94 0 0 1 1.671.547 5.583 5.583 0 0 1 2.415 2.42 5.81 5.81 0 0 1 .535 1.649c.116.631.152 1.279.174 1.888.003.283.003.587.003.89.007.375.007.732.007 1.091v20.929c0 .363 0 .718-.007 1.075 0 .326 0 .623-.004.93-.021.589-.057 1.236-.171 1.854a5.78 5.78 0 0 1-.54 1.67c-.27.519-.613.989-1.016 1.385a5.426 5.426 0 0 1-1.399 1.023 5.905 5.905 0 0 1-1.668.55c-.641.116-1.304.147-1.869.163-.293.006-.6.01-.898.01l-1.084.002z"/></g></g></g><g><g><g><g><path fill="#fff" d="M24.769 20.301c-.025-2.751 2.253-4.089 2.357-4.152-1.29-1.881-3.289-2.138-3.991-2.158-1.68-.176-3.308 1.005-4.163 1.005-.873 0-2.19-.987-3.609-.958-1.826.028-3.535 1.086-4.473 2.728-1.934 3.348-.491 8.269 1.361 10.976.927 1.325 2.011 2.806 3.428 2.753 1.387-.057 1.905-.884 3.58-.884 1.658 0 2.144.884 3.591.851 1.488-.024 2.426-1.331 3.32-2.669 1.071-1.52 1.501-3.016 1.518-3.093-.034-.012-2.89-1.101-2.919-4.399z"/></g><g><path fill="#fff" d="M22.038 12.211c.745-.933 1.256-2.202 1.114-3.49-1.08.047-2.43.746-3.207 1.659-.688.804-1.303 2.123-1.144 3.362 1.213.09 2.458-.612 3.237-1.531z"/></g></g></g><g><g><path fill="#fff" d="M39.91 20.144h.052l1.849 5.447h-3.752zm3.528 10.352h2.039l-4.483-12.418h-2.083l-4.483 12.418h2.004l1.137-3.356h4.734z"/></g><g><path fill="#fff" d="M50.857 29.016c-1.42 0-2.375-1.222-2.375-3.046 0-1.808.955-3.038 2.375-3.038 1.446 0 2.393 1.205 2.393 3.038 0 1.85-.947 3.046-2.393 3.046zm.491-7.668c-1.265 0-2.367.629-2.883 1.601h-.034v-1.506h-1.799v12.049h1.858v-4.485h.043c.534 1.007 1.559 1.584 2.849 1.584 2.272 0 3.778-1.807 3.778-4.621 0-2.806-1.515-4.622-3.812-4.622z"/></g><g><path fill="#fff" d="M60.822 29.016c-1.42 0-2.375-1.222-2.375-3.046 0-1.808.955-3.038 2.375-3.038 1.445 0 2.393 1.205 2.393 3.038 0 1.85-.948 3.046-2.393 3.046zm.49-7.668c-1.264 0-2.366.629-2.882 1.601h-.035v-1.506h-1.798v12.049h1.858v-4.485h.043c.534 1.007 1.559 1.584 2.849 1.584 2.272 0 3.778-1.807 3.778-4.621 0-2.806-1.515-4.622-3.813-4.622z"/></g><g><path fill="#fff" d="M71.711 27.036c.137 1.232 1.334 2.041 2.969 2.041 1.566 0 2.693-.809 2.693-1.919 0-.964-.68-1.541-2.289-1.937l-1.61-.388c-2.28-.55-3.338-1.617-3.338-3.347 0-2.143 1.867-3.615 4.518-3.615 2.624 0 4.423 1.472 4.484 3.615h-1.876c-.113-1.24-1.137-1.988-2.634-1.988-1.497 0-2.522.757-2.522 1.859 0 .878.655 1.394 2.255 1.79l1.368.336c2.548.602 3.607 1.626 3.607 3.442 0 2.323-1.851 3.778-4.794 3.778-2.754 0-4.613-1.42-4.734-3.667z"/></g><g><path fill="#fff" d="M83.347 19.3v2.143h1.721v1.471h-1.721v4.992c0 .775.344 1.136 1.101 1.136.19 0 .491-.026.611-.043v1.463c-.206.052-.619.086-1.032.086-1.833 0-2.548-.688-2.548-2.444v-5.19h-1.316v-1.471h1.316V19.3z"/></g><g><path fill="#fff" d="M90.359 29.077c-1.506 0-2.4-1.145-2.4-3.107 0-1.945.894-3.107 2.4-3.107 1.506 0 2.402 1.153 2.402 3.107 0 1.962-.896 3.107-2.402 3.107zm0 1.532c2.634 0 4.295-1.782 4.295-4.639 0-2.849-1.67-4.639-4.295-4.639-2.616 0-4.294 1.79-4.294 4.639 0 2.857 1.661 4.639 4.294 4.639z"/></g><g><path fill="#fff" d="M96.186 21.443h1.773v1.541h.043c.284-1.025 1.11-1.636 2.178-1.636.266 0 .49.035.636.069v1.739c-.146-.061-.473-.113-.835-.113-1.196 0-1.936.81-1.936 2.083v5.37h-1.859z"/></g><g><path fill="#fff" d="M105.408 22.837c1.291 0 2.178.912 2.221 2.298h-4.527c.095-1.368 1.024-2.298 2.306-2.298zm2.212 5c-.249.783-1.059 1.274-2.091 1.274-1.463 0-2.435-1.016-2.435-2.565v-.112h6.394v-.637c0-2.745-1.575-4.466-4.08-4.466-2.547 0-4.19 1.842-4.19 4.682 0 2.831 1.634 4.596 4.268 4.596 2.048 0 3.649-1.128 3.899-2.772z"/></g></g></g></g><g><g><g><path fill="#fff" d="M36.598 9.575h1.125c1.236 0 1.968.785 1.968 2.133 0 1.369-.72 2.146-1.968 2.146h-1.125zm-.927-.844v5.967h2.156c1.777 0 2.807-1.096 2.807-3.002 0-1.877-1.038-2.965-2.807-2.965z"/></g><g><path fill="#fff" d="M43.806 13.995c-.772 0-1.207-.566-1.207-1.55 0-.976.435-1.547 1.207-1.547.77 0 1.208.571 1.208 1.547 0 .98-.438 1.55-1.208 1.55zm0 .79c1.315 0 2.122-.881 2.122-2.34 0-1.452-.81-2.337-2.122-2.337-1.314 0-2.125.885-2.125 2.337 0 1.459.807 2.34 2.125 2.34z"/></g><g><path fill="#fff" d="M51.574 14.698h-.922l-.931-3.316h-.07l-.927 3.316h-.913l-1.241-4.503h.901l.807 3.436h.066l.926-3.436h.852l.926 3.436h.071l.802-3.436h.889z"/></g><g><path fill="#fff" d="M53.854 10.195h.855v.715h.067c.218-.5.666-.802 1.343-.802 1.005 0 1.559.604 1.559 1.675v2.915h-.889v-2.692c0-.723-.314-1.083-.971-1.083s-1.075.438-1.075 1.141v2.634h-.889z"/></g><g><path fill="#fff" d="M59.094 8.437h.889v6.261h-.889z"/></g><g><path fill="#fff" d="M63.343 13.995c-.772 0-1.207-.566-1.207-1.55 0-.976.435-1.547 1.207-1.547.77 0 1.208.571 1.208 1.547 0 .98-.438 1.55-1.208 1.55zm0 .79c1.316 0 2.123-.881 2.123-2.34 0-1.452-.811-2.337-2.123-2.337-1.314 0-2.125.885-2.125 2.337 0 1.459.807 2.34 2.125 2.34z"/></g><g><path fill="#fff" d="M68.13 14.024c-.484 0-.835-.236-.835-.641 0-.397.281-.608.901-.649l1.1-.071v.377c0 .558-.496.984-1.166.984zm-.228.748c.592 0 1.084-.256 1.353-.707h.07v.633h.856v-3.077c0-.951-.637-1.513-1.766-1.513-1.022 0-1.749.496-1.84 1.27h.86c.099-.319.443-.501.939-.501.607 0 .922.269.922.744v.389l-1.22.07c-1.071.067-1.675.534-1.675 1.345 0 .822.633 1.347 1.501 1.347z"/></g><g><path fill="#fff" d="M73.47 10.919c.744 0 1.212.591 1.212 1.53 0 .942-.463 1.525-1.212 1.525-.753 0-1.204-.574-1.204-1.529 0-.948.456-1.526 1.204-1.526zm-.252 3.853c.62 0 1.145-.293 1.414-.785h.07v.711h.852V8.437h-.889v2.473h-.067c-.244-.496-.764-.79-1.38-.79-1.138 0-1.87.902-1.87 2.325 0 1.426.724 2.327 1.87 2.327z"/></g><g><path fill="#fff" d="M81.355 13.995c-.772 0-1.207-.566-1.207-1.55 0-.976.435-1.547 1.207-1.547.77 0 1.208.571 1.208 1.547 0 .98-.438 1.55-1.208 1.55zm0 .79c1.316 0 2.122-.881 2.122-2.34 0-1.452-.81-2.337-2.122-2.337-1.314 0-2.125.885-2.125 2.337 0 1.459.807 2.34 2.125 2.34z"/></g><g><path fill="#fff" d="M84.67 10.195h.855v.715h.067c.218-.5.666-.802 1.343-.802 1.005 0 1.559.604 1.559 1.675v2.915h-.889v-2.692c0-.723-.314-1.083-.971-1.083-.658 0-1.076.438-1.076 1.141v2.634h-.888z"/></g><g><path fill="#fff" d="M93.515 9.074v1.142h.976v.748h-.976v2.316c0 .471.195.678.637.678.137 0 .215-.008.339-.021v.741a2.95 2.95 0 0 1-.483.045c-.989 0-1.382-.348-1.382-1.216v-2.543h-.715v-.748h.715V9.074z"/></g><g><path fill="#fff" d="M95.705 8.437h.881v2.482h.07c.219-.505.694-.807 1.373-.807.959 0 1.551.608 1.551 1.679v2.907h-.89V12.01c0-.719-.335-1.083-.963-1.083-.728 0-1.133.459-1.133 1.141v2.63h-.889z"/></g><g><path fill="#fff" d="M102.802 10.865c.658 0 1.088.459 1.108 1.166h-2.274c.049-.703.508-1.166 1.166-1.166zm1.104 2.617c-.165.352-.533.546-1.071.546-.711 0-1.17-.5-1.199-1.29v-.05h3.179v-.31c0-1.414-.756-2.27-2.008-2.27-1.27 0-2.077.914-2.077 2.353s.79 2.324 2.08 2.324c1.03 0 1.749-.496 1.952-1.303z"/></g></g></g></g></g></svg>