<svg xmlns="http://www.w3.org/2000/svg" width="135" height="40" viewBox="0 0 135 40"><defs><linearGradient id="vxhxa" x1="31.09" x2="6.93" y1="20" y2="20" gradientUnits="userSpaceOnUse"><stop offset="0" stop-color="#ffdf00"/><stop offset=".41" stop-color="#fbbc0e"/><stop offset=".78" stop-color="#f8a318"/><stop offset="1" stop-color="#f89b1c"/></linearGradient><linearGradient id="vxhxb" x1="24.82" x2="2.08" y1="22.29" y2="45.03" gradientUnits="userSpaceOnUse"><stop offset="0" stop-color="#ee4447"/><stop offset="1" stop-color="#c5166c"/></linearGradient><linearGradient id="vxhxc" x1="1.98" x2="20.54" y1="-5.13" y2="13.43" gradientUnits="userSpaceOnUse"><stop offset="0" stop-color="#269e6f"/><stop offset=".05" stop-color="#2ba06e"/><stop offset=".47" stop-color="#52b26a"/><stop offset=".8" stop-color="#6bbc68"/><stop offset="1" stop-color="#74c168"/></linearGradient></defs><g><g><g><path d="M5 40a5 5 0 0 1-5-5V5a5 5 0 0 1 5-5h125a5 5 0 0 1 5 5v30a5 5 0 0 1-5 5z"/></g><g><g><g><path fill="#a6a5a5" d="M135 5v30c0 2.75-2.25 5-5 5H5c-2.75 0-5-2.25-5-5V5c0-2.75 2.25-5 5-5h125c2.75 0 5 2.25 5 5zM5 .8A4.205 4.205 0 0 0 .8 5v30c0 2.316 1.884 4.2 4.2 4.2h125c2.316 0 4.2-1.884 4.2-4.2V5c0-2.316-1.884-4.2-4.2-4.2z"/></g></g></g><g><g><path fill="#fff" d="M47.418 10.243c0 .838-.248 1.505-.745 2.003-.564.592-1.3.888-2.204.888-.866 0-1.602-.3-2.208-.901-.606-.6-.909-1.345-.909-2.233 0-.889.303-1.633.909-2.233.606-.601 1.342-.901 2.208-.901.43 0 .841.084 1.232.251.39.168.704.391.938.671l-.527.527c-.398-.474-.945-.711-1.643-.711-.632 0-1.177.221-1.638.666-.461.444-.692 1.021-.692 1.73 0 .709.231 1.286.692 1.73a2.276 2.276 0 0 0 1.638.666c.67 0 1.229-.223 1.676-.669.29-.292.458-.696.503-1.216h-2.179v-.72h2.908c.028.156.041.307.041.452z"/><path fill="none" stroke="#fff" stroke-miterlimit="20" stroke-width=".2" d="M47.418 10.243c0 .838-.248 1.505-.745 2.003-.564.592-1.3.888-2.204.888-.866 0-1.602-.3-2.208-.901-.606-.6-.909-1.345-.909-2.233 0-.889.303-1.633.909-2.233.606-.601 1.342-.901 2.208-.901.43 0 .841.084 1.232.251.39.168.704.391.938.671l-.527.527c-.398-.474-.945-.711-1.643-.711-.632 0-1.177.221-1.638.666-.461.444-.692 1.021-.692 1.73 0 .709.231 1.286.692 1.73a2.276 2.276 0 0 0 1.638.666c.67 0 1.229-.223 1.676-.669.29-.292.458-.696.503-1.216h-2.179v0-.72 0h2.908c.028.156.041.307.041.452z"/></g><g><path fill="#fff" d="M52.028 7.737h-2.733V9.64h2.464v.72h-2.464v1.903h2.733V13h-3.503V7h3.503z"/><path fill="none" stroke="#fff" stroke-miterlimit="20" stroke-width=".2" d="M52.028 7.737v0h-2.733V9.64h2.464v.72h-2.464v1.903h2.733V13h-3.503v0-6 0h3.503v0z"/></g><g><path fill="#fff" d="M55.279 13h-.772V7.737h-1.675V7h4.123v.737h-1.676z"/><path fill="none" stroke="#fff" stroke-miterlimit="20" stroke-width=".2" d="M55.279 13v0h-.772v0-5.263 0h-1.675v0V7v0h4.123v.737h-1.676v0z"/></g><g><path fill="#fff" d="M59.938 13V7h.77v6z"/><path fill="none" stroke="#fff" stroke-miterlimit="20" stroke-width=".2" d="M59.938 13v0-6 0h.77v6z"/></g><g><path fill="#fff" d="M64.128 13h-.771V7.737h-1.676V7h4.123v.737h-1.676z"/><path fill="none" stroke="#fff" stroke-miterlimit="20" stroke-width=".2" d="M64.128 13v0h-.771v0-5.263 0h-1.676v0V7v0h4.123v.737h-1.676v0z"/></g><g><path fill="#fff" d="M69.113 10c0-.698.223-1.273.666-1.722.445-.45.988-.674 1.63-.674.643 0 1.187.224 1.63.674.444.449.667 1.024.667 1.722s-.223 1.273-.667 1.722c-.443.45-.987.674-1.63.674a2.204 2.204 0 0 1-1.63-.674c-.443-.449-.666-1.024-.666-1.722zm5.38 0c0-.872-.296-1.612-.888-2.221-.592-.609-1.324-.913-2.196-.913-.877 0-1.61.303-2.199.909-.59.606-.884 1.348-.884 2.225s.294 1.619.884 2.225c.589.606 1.322.909 2.199.909.877 0 1.611-.303 2.2-.909.589-.606.884-1.348.884-2.225z"/><path fill="none" stroke="#fff" stroke-miterlimit="20" stroke-width=".2" d="M69.113 10c0-.698.223-1.273.666-1.722.445-.45.988-.674 1.63-.674.643 0 1.187.224 1.63.674.444.449.667 1.024.667 1.722s-.223 1.273-.667 1.722c-.443.45-.987.674-1.63.674a2.204 2.204 0 0 1-1.63-.674c-.443-.449-.666-1.024-.666-1.722zm5.38 0c0-.872-.296-1.612-.888-2.221-.592-.609-1.324-.913-2.196-.913-.877 0-1.61.303-2.199.909-.59.606-.884 1.348-.884 2.225s.294 1.619.884 2.225c.589.606 1.322.909 2.199.909.877 0 1.611-.303 2.2-.909.589-.606.884-1.348.884-2.225z"/></g><g><path fill="#fff" d="M75.575 13V7h.939l2.916 4.667h.033l-.033-1.156V7h.771v6h-.804l-3.051-4.894h-.033l.033 1.157V13z"/><path fill="none" stroke="#fff" stroke-miterlimit="20" stroke-width=".2" d="M75.575 13v0-6 0h.939v0l2.916 4.667v0h.033v0l-.033-1.156v0V7v0h.771v6h-.804v0l-3.051-4.894v0h-.033v0l.033 1.157V13z"/></g></g><g><path fill="#fff" d="M106.936 17.499h1.866V30h-1.866zm18.882 4.503l-5.131 11.789h-1.946l1.898-4.214-3.329-7.575h2.01l2.22 5.42h.064l2.139-5.42zm-10.438 4.6c-.499-.241-.885-.418-1.705-.418-.917 0-1.978.37-1.978 1.335 0 .756.852 1.061 1.464 1.061 1.077 0 2.074-.82 2.219-1.978zm1.801-1.416v4.793h-1.801v-.965h-.064c-.435.66-1.126 1.223-2.381 1.223-1.64 0-3.104-1.078-3.104-2.751 0-1.833 1.818-2.814 3.603-2.814.885 0 1.608.289 1.946.482v-.128c-.016-1.03-.997-1.609-1.962-1.609-.692 0-1.351.225-1.705.917l-1.657-.692c.579-1.318 1.979-1.913 3.33-1.913 2.139 0 3.795 1.238 3.795 3.457zm-13.14-3.805c0-.987-.792-2.142-2.187-2.142H99.2v4.285h2.654c1.395 0 2.187-1.174 2.187-2.143zm1.866 0c0 2.385-2.033 3.883-4.101 3.883H99.2V30h-1.865V17.499h4.471c2.068 0 4.101 1.497 4.101 3.882zm-26.211 4.64c0-1.498-.998-2.594-2.271-2.594-1.289 0-2.368 1.096-2.368 2.594 0 1.482 1.079 2.561 2.368 2.561 1.273 0 2.271-1.079 2.271-2.561zm-.129-4.012h1.773v7.637c0 3.141-1.853 4.43-4.044 4.43-2.062 0-3.303-1.385-3.77-2.513l1.627-.677c.29.693.999 1.515 2.143 1.515 1.402 0 2.271-.87 2.271-2.497v-.613h-.064c-.419.516-1.224.967-2.239.967-2.127 0-4.076-1.853-4.076-4.237 0-2.401 1.949-4.269 4.076-4.269 1.015 0 1.82.451 2.239.95h.064zm3.062-4.511h1.868V30h-1.868zm8.425 6.799c-.209-.532-.837-.902-1.579-.902-.95 0-2.271.838-2.223 2.481zm2.191.644l-5.687 2.353c.435.853 1.112 1.288 2.063 1.288.95 0 1.61-.467 2.094-1.176l1.45.967c-.467.693-1.595 1.885-3.544 1.885-2.417 0-4.221-1.869-4.221-4.253 0-2.53 1.82-4.253 4.011-4.253 2.207 0 3.287 1.756 3.641 2.706zm-39.428-1.884c.065.322.097.708.097 1.127 0 1.354-.371 3.029-1.563 4.221-1.16 1.209-2.642 1.853-4.607 1.853-3.641 0-6.702-2.964-6.702-6.605 0-3.641 3.061-6.606 6.702-6.606 2.014 0 3.447.79 4.527 1.821l-1.273 1.273c-.773-.725-1.82-1.289-3.254-1.289-2.658 0-4.737 2.142-4.737 4.801 0 2.658 2.079 4.8 4.737 4.8 1.723 0 2.706-.692 3.335-1.321.515-.515.853-1.256.982-2.271h-4.317v-1.804zm7.406 2.948c0-1.531-1.112-2.578-2.4-2.578-1.289 0-2.401 1.047-2.401 2.578 0 1.514 1.112 2.577 2.401 2.577 1.288 0 2.4-1.063 2.4-2.577zm1.869 0c0 2.448-1.917 4.253-4.269 4.253-2.353 0-4.27-1.805-4.27-4.253 0-2.465 1.917-4.253 4.27-4.253 2.352 0 4.269 1.788 4.269 4.253zm7.444 0c0-1.531-1.111-2.578-2.4-2.578s-2.401 1.047-2.401 2.578c0 1.514 1.112 2.577 2.401 2.577 1.289 0 2.4-1.063 2.4-2.577zm1.869 0c0 2.448-1.917 4.253-4.269 4.253-2.352 0-4.269-1.805-4.269-4.253 0-2.465 1.917-4.253 4.269-4.253 2.352 0 4.269 1.788 4.269 4.253z"/></g><g><g><g><g><path fill="#5bc8f3" d="M10.435 7.547c-.291.308-.462.785-.462 1.404v22.098c0 .619.171 1.096.462 1.404l.074.072 12.378-12.379v-.292L10.509 7.475z"/></g><g><path fill="url(#vxhxa)" d="M27.013 24.274l-4.126-4.128v-.292l4.128-4.127.093.053 4.889 2.777c1.396.794 1.396 2.092 0 2.886l-4.889 2.777z"/></g><g><path fill="url(#vxhxb)" d="M27.108 24.22L22.887 20 10.435 32.453c.461.487 1.22.547 2.076.061l14.597-8.294"/></g><g><path fill="url(#vxhxc)" d="M27.108 15.78L12.511 7.486c-.856-.486-1.615-.426-2.076.061L22.887 20z"/></g></g></g></g></g></g></svg>